<?xml version="1.0" encoding="UTF-8" standalone="no"?>
<svg
   version="1.1"
   width="949"
   height="862.14801"
   id="svg9"
   sodipodi:docname="alpha_gain_logo.svg"
   inkscape:version="1.4.2 (ebf0e940, 2025-05-08)"
   inkscape:export-filename="alpha_gain_logo.png"
   inkscape:export-xdpi="96"
   inkscape:export-ydpi="96"
   xmlns:inkscape="http://www.inkscape.org/namespaces/inkscape"
   xmlns:sodipodi="http://sodipodi.sourceforge.net/DTD/sodipodi-0.dtd"
   xmlns:xlink="http://www.w3.org/1999/xlink"
   xmlns="http://www.w3.org/2000/svg"
   xmlns:svg="http://www.w3.org/2000/svg">
  <defs
     id="defs9">
    <linearGradient
       id="linearGradient9"
       inkscape:collect="always">
      <stop
         style="stop-color:#003366;stop-opacity:1;"
         offset="0.53899539"
         id="stop9" />
      <stop
         style="stop-color:#2061af;stop-opacity:0;"
         offset="0.88687187"
         id="stop10" />
    </linearGradient>
    <linearGradient
       inkscape:collect="always"
       xlink:href="#linearGradient9"
       id="linearGradient10"
       x1="-1.5258789e-05"
       y1="265.84668"
       x2="-641.60889"
       y2="265.84668"
       gradientUnits="userSpaceOnUse"
       gradientTransform="matrix(1.6957102,0,0,1.6957102,962.5021,-14.282733)" />
  </defs>
  <sodipodi:namedview
     id="namedview9"
     pagecolor="#ffffff"
     bordercolor="#000000"
     borderopacity="0.25"
     inkscape:showpageshadow="2"
     inkscape:pageopacity="0.0"
     inkscape:pagecheckerboard="0"
     inkscape:deskcolor="#d1d1d1"
     inkscape:zoom="0.63731841"
     inkscape:cx="449.53981"
     inkscape:cy="441.69444"
     inkscape:window-width="1440"
     inkscape:window-height="870"
     inkscape:window-x="0"
     inkscape:window-y="34"
     inkscape:window-maximized="0"
     inkscape:current-layer="svg9"
     showgrid="false">
    <inkscape:grid
       id="grid1"
       units="px"
       originx="-75"
       originy="0"
       spacingx="1"
       spacingy="1"
       empcolor="#0099e5"
       empopacity="0.30196078"
       color="#0099e5"
       opacity="0.14901961"
       empspacing="5"
       enabled="true"
       visible="false" />
  </sodipodi:namedview>
  <path
     d="m 949,0 c -14.0305,86.535621 -35.1476,136.07168 -48.03683,211.37273 -10.98032,-29.7433 -18.54526,-53.1372 -26.1598,-70.77101 C 741.87421,308.3142 716.72752,341.02945 578.26016,511.3085 400.74449,709.96007 345,780 225,780 c -300,0 -300,-640 0,-640 120,0 200,140 309.25795,269.03654 -17.25176,19.11021 -30.94881,35.00639 -47.82546,54.48385 C 421.50863,396.94023 325,220 225,220 -75,220 -75,700 225,700 345,700 394.94647,606.33945 530.44044,452.18326 668.61268,291.01711 760.49321,180.78201 828.99509,101.49477 791.41041,95.201411 784.78037,94.411901 753.94016,90.928751 826.77192,57.465791 872.94014,36.858871 949,0 Z"
     fill="#2061af"
     id="path2"
     sodipodi:nodetypes="cccccccccccccc"
     style="fill:url(#linearGradient10);stroke-width:1.6957" />
  <path
     d="m 626.46502,510.82015 c 108.30299,118.54577 210.5169,248.14712 299.17586,350.11568 -36.58435,0.14584 -66.01107,1.04339 -99.00588,1.21221 C 718.97498,732.74109 678.97498,672.74109 578.43249,565.52039 c 20.00518,-22.17606 30.50601,-34.99498 48.03253,-54.70024 z"
     fill="#21539e"
     id="path3"
     sodipodi:nodetypes="ccccc"
     style="fill:#003366;fill-opacity:1;stroke-width:1.6957" />
</svg>
