<?xml version="1.0" encoding="UTF-8" standalone="no"?>
<svg
   version="1.1"
   width="1024"
   height="851.24115"
   id="svg9"
   sodipodi:docname="alpha_gain_logo.svg"
   inkscape:version="1.4.2 (ebf0e940, 2025-05-08)"
   inkscape:export-filename="alpha_gain_logo.png"
   inkscape:export-xdpi="96"
   inkscape:export-ydpi="96"
   xmlns:inkscape="http://www.inkscape.org/namespaces/inkscape"
   xmlns:sodipodi="http://sodipodi.sourceforge.net/DTD/sodipodi-0.dtd"
   xmlns:xlink="http://www.w3.org/1999/xlink"
   xmlns="http://www.w3.org/2000/svg"
   xmlns:svg="http://www.w3.org/2000/svg">
  <defs
     id="defs9">
    <linearGradient
       id="linearGradient9"
       inkscape:collect="always">
      <stop
         style="stop-color:#003366;stop-opacity:1;"
         offset="0.54716974"
         id="stop9" />
      <stop
         style="stop-color:#2061af;stop-opacity:0;"
         offset="0.99313891"
         id="stop10" />
    </linearGradient>
    <linearGradient
       inkscape:collect="always"
       xlink:href="#linearGradient9"
       id="linearGradient10"
       x1="-1.5258789e-05"
       y1="265.84668"
       x2="-641.60889"
       y2="265.84668"
       gradientUnits="userSpaceOnUse"
       gradientTransform="matrix(1.6957102,0,0,1.6957102,1037.5021,-14.282733)" />
  </defs>
  <sodipodi:namedview
     id="namedview9"
     pagecolor="#ffffff"
     bordercolor="#000000"
     borderopacity="0.25"
     inkscape:showpageshadow="2"
     inkscape:pageopacity="0.0"
     inkscape:pagecheckerboard="0"
     inkscape:deskcolor="#d1d1d1"
     inkscape:zoom="0.55811219"
     inkscape:cx="730.13994"
     inkscape:cy="478.39844"
     inkscape:window-width="1920"
     inkscape:window-height="1027"
     inkscape:window-x="1710"
     inkscape:window-y="25"
     inkscape:window-maximized="0"
     inkscape:current-layer="svg9" />
  <path
     d="m 1024,0 c -14.0305,86.535621 -23.1476,138.07168 -36.03683,213.37273 -10.98032,-29.7433 -20.54526,-49.1372 -28.1598,-66.77101 C 826.87421,314.3142 801.72752,341.02945 663.26016,511.3085 485.74449,709.96007 285.89116,866.0612 169.77039,850.12015 43.820011,826.27837 -14.718361,692.55787 3.147861,559.16826 24.536176,453.66644 130.28743,243.61356 288.35184,230.84271 c 111.37132,0.77913 194.15262,58.93065 320.90611,178.19383 -17.25176,19.11021 -30.94881,35.00639 -47.82546,54.48385 C 496.50863,396.94023 403.69897,322.41939 315.58132,306.07891 140.06082,288.78823 -24.787404,694.85718 171.10921,753.98151 281.39336,770.59742 469.94647,606.33945 605.44044,452.18326 743.61268,291.01711 835.49321,180.78201 903.99509,101.49477 866.41041,95.201411 859.78037,94.411901 828.94016,90.928751 901.77192,57.465791 947.94014,36.858871 1024,0 Z"
     fill="#2061af"
     id="path2"
     sodipodi:nodetypes="ccccccccccccccc"
     style="fill:url(#linearGradient10);stroke-width:1.6957" />
  <path
     d="m 707.49004,498.07906 c 108.30299,118.54577 210.5169,248.14712 299.17586,350.11568 -36.58435,0.14584 -66.01107,1.04339 -99.00588,1.21221 -89.35773,-121.4042 -145.1084,-183.39532 -248.20251,-296.62765 20.00518,-22.17606 30.50601,-34.99498 48.03253,-54.70024 z"
     fill="#21539e"
     id="path3"
     sodipodi:nodetypes="ccccc"
     style="fill:#003366;fill-opacity:1;stroke-width:1.6957" />
</svg>
